<svg width="84" height="84" xmlns="http://www.w3.org/2000/svg">
 <style type="text/css">
   .st1{fill:none;stroke:#FFF;stroke-width:4;stroke-linecap:round;stroke-linejoin:round;stroke-miterlimit:10;}
 </style>
  <path id="svg_1" d="m53.787271,40.674511c1,7.8 -5.6,14.4 -13.4,13.4c-5.3,-0.7 -9.6,-5 -10.3,-10.3c-1,-7.8 5.6,-14.4 13.4,-13.4c5.3,0.7 9.6,5 10.3,10.3z" class="st1"/>
  <path id="svg_2" d="m76.987271,35.574511c-3.1,0 -7.1,0 -8.5,0c-0.6,-2.2 -1.4,-4.4 -2.5,-6.4l6,-6c0,0 3,-3.3 0,-6.3s-4.6,-4.6 -4.6,-4.6s-3,-2.7 -5.7,0c-2.4,2.4 -5.5,5.5 -6.2,6.2c-1.7,-1 -3.5,-1.8 -5.5,-2.4l0.1,0l0,-8.8c0,0 -0.2,-4.4 -4.4,-4.4c-4.3,0 -6.5,0 -6.5,0s-4,0.2 -4,4c0,3.4 0,7.9 0,8.8c-2,0.5 -3.9,1.2 -5.7,2.2l-6.2,-6.2c0,0 -3.3,-3 -6.3,0s-4.6,4.6 -4.6,4.6s-2.7,3 0,5.7c2.3,2.3 5.2,5.2 6.1,6.1c-1,1.7 -1.9,3.5 -2.5,5.4l-8.7,0c0,0 -4.4,0.2 -4.4,4.4c0,4.2 0,6.5 0,6.5s0.2,4 4,4c3,0 6.9,0 8.4,0c0.5,2.3 1.4,4.5 2.5,6.5l-5.9,5.9c0,0 -3,3.3 0,6.3s4.6,4.6 4.6,4.6s3,2.7 5.7,0c2.1,-2.1 4.8,-4.8 5.9,-5.9c2,1.2 4.2,2.1 6.5,2.8l0,8.6c0,0 0.2,4.4 4.4,4.4c4.3,0 6.5,0 6.5,0s4,-0.2 4,-4s0,-9 0,-9l-0.1,0c1.9,-0.5 3.6,-1.3 5.3,-2.1l5.8,5.8c0,0 3.3,3 6.3,0s4.6,-4.6 4.6,-4.6s2.7,-3 0,-5.7c-2.1,-2.1 -4.8,-4.8 -5.9,-5.9c1,-1.7 1.9,-3.6 2.5,-5.6l8.5,0c0,0 4.4,-0.2 4.4,-4.4c0,-4.2 0,-6.5 0,-6.5s-0.1,-4 -3.9,-4z" class="st1"/>
</svg>
